<?xml version="1.0" encoding="UTF-8"?>
<svg xmlns="http://www.w3.org/2000/svg" xmlns:xlink="http://www.w3.org/1999/xlink" width="22px" height="22px" viewBox="0 0 22 22" version="1.1">
<g id="surface1">
<path style=" stroke:none;fill-rule:nonzero;fill:rgb(0%,0%,0%);fill-opacity:1;" d="M 21.582031 8.195312 C 21.753906 8.066406 22 8.191406 22 8.398438 L 22 17.1875 C 22 18.324219 21.074219 19.25 19.9375 19.25 L 2.0625 19.25 C 0.925781 19.25 0 18.324219 0 17.1875 L 0 8.40625 C 0 8.191406 0.246094 8.066406 0.417969 8.203125 C 1.378906 8.949219 2.652344 9.898438 7.035156 13.085938 C 7.945312 13.746094 9.476562 15.136719 11 15.128906 C 12.535156 15.140625 14.09375 13.71875 14.964844 13.085938 C 19.347656 9.898438 20.621094 8.949219 21.582031 8.195312 Z M 11 13.75 C 12 13.765625 13.433594 12.492188 14.152344 11.972656 C 19.855469 7.832031 20.292969 7.472656 21.601562 6.441406 C 21.855469 6.246094 22 5.945312 22 5.628906 L 22 4.8125 C 22 3.671875 21.074219 2.75 19.9375 2.75 L 2.0625 2.75 C 0.925781 2.75 0 3.671875 0 4.8125 L 0 5.628906 C 0 5.945312 0.144531 6.242188 0.398438 6.441406 C 1.707031 7.464844 2.144531 7.832031 7.847656 11.972656 C 8.566406 12.492188 10 13.765625 11 13.75 Z M 11 13.75 "/>
</g>
</svg>
