<?xml version="1.0" encoding="UTF-8"?>
<svg xmlns="http://www.w3.org/2000/svg" xmlns:xlink="http://www.w3.org/1999/xlink" width="58px" height="66px" viewBox="0 0 58 66" version="1.1">
<g id="surface1">
<path style=" stroke:none;fill-rule:nonzero;fill:white;fill-opacity:1;" d="M 0 4.125 L 0 61.875 L 58 61.875 L 58 4.125 Z M 31.5625 49.164062 C 31.5625 54.785156 28.25 57.351562 23.421875 57.351562 C 19.058594 57.351562 16.53125 55.109375 15.238281 52.386719 L 19.679688 49.71875 C 20.53125 51.226562 21.308594 52.503906 23.1875 52.503906 C 24.972656 52.503906 26.113281 51.808594 26.113281 49.085938 L 26.113281 30.640625 L 31.5625 30.640625 Z M 44.457031 57.351562 C 39.394531 57.351562 36.121094 54.953125 34.527344 51.808594 L 38.96875 49.253906 C 40.132812 51.148438 41.660156 52.554688 44.339844 52.554688 C 46.59375 52.554688 48.042969 51.433594 48.042969 49.875 C 48.042969 48.015625 46.566406 47.359375 44.070312 46.265625 L 42.710938 45.683594 C 38.773438 44.023438 36.171875 41.921875 36.171875 37.5 C 36.171875 33.425781 39.292969 30.332031 44.148438 30.332031 C 47.617188 30.332031 50.101562 31.53125 51.890625 34.675781 L 47.644531 37.382812 C 46.710938 35.71875 45.699219 35.0625 44.132812 35.0625 C 42.542969 35.0625 41.53125 36.066406 41.53125 37.382812 C 41.53125 39.007812 42.542969 39.664062 44.886719 40.683594 L 46.246094 41.261719 C 50.878906 43.234375 53.480469 45.257812 53.480469 49.796875 C 53.480469 54.667969 49.625 57.351562 44.457031 57.351562 Z M 44.457031 57.351562 "/>
</g>
</svg>
