<svg width="112" height="40" viewBox="0 0 112 40" fill="none" xmlns="http://www.w3.org/2000/svg">
<circle cx="20" cy="20" r="19.5" stroke="white"/>
<path d="M27.92 13.04L22.8 27H19.4L14.28 13.04H17.28L21.12 24.14L24.94 13.04H27.92Z" fill="white"/>
<path d="M58.48 13.1L53.26 27H50.62L45.38 13.1H47.82L51.94 24.66L56.08 13.1H58.48ZM68.7667 24.16H62.9467L61.9467 27H59.5667L64.5467 13.08H67.1867L72.1667 27H69.7667L68.7667 24.16ZM68.1267 22.3L65.8667 15.84L63.5867 22.3H68.1267ZM78.912 27.14C77.9787 27.14 77.1387 26.98 76.392 26.66C75.6454 26.3267 75.0587 25.86 74.632 25.26C74.2054 24.66 73.992 23.96 73.992 23.16H76.432C76.4854 23.76 76.7187 24.2533 77.132 24.64C77.5587 25.0267 78.152 25.22 78.912 25.22C79.6987 25.22 80.312 25.0333 80.752 24.66C81.192 24.2733 81.412 23.78 81.412 23.18C81.412 22.7133 81.272 22.3333 80.992 22.04C80.7254 21.7467 80.3854 21.52 79.972 21.36C79.572 21.2 79.012 21.0267 78.292 20.84C77.3854 20.6 76.6454 20.36 76.072 20.12C75.512 19.8667 75.032 19.48 74.632 18.96C74.232 18.44 74.032 17.7467 74.032 16.88C74.032 16.08 74.232 15.38 74.632 14.78C75.032 14.18 75.592 13.72 76.312 13.4C77.032 13.08 77.8654 12.92 78.812 12.92C80.1587 12.92 81.2587 13.26 82.112 13.94C82.9787 14.6067 83.4587 15.5267 83.552 16.7H81.032C80.992 16.1933 80.752 15.76 80.312 15.4C79.872 15.04 79.292 14.86 78.572 14.86C77.9187 14.86 77.3854 15.0267 76.972 15.36C76.5587 15.6933 76.352 16.1733 76.352 16.8C76.352 17.2267 76.4787 17.58 76.732 17.86C76.9987 18.1267 77.332 18.34 77.732 18.5C78.132 18.66 78.6787 18.8333 79.372 19.02C80.292 19.2733 81.0387 19.5267 81.612 19.78C82.1987 20.0333 82.692 20.4267 83.092 20.96C83.5054 21.48 83.712 22.18 83.712 23.06C83.712 23.7667 83.5187 24.4333 83.132 25.06C82.7587 25.6867 82.2054 26.1933 81.472 26.58C80.752 26.9533 79.8987 27.14 78.912 27.14ZM88.6823 13.1V27H86.4023V13.1H88.6823ZM93.9558 25.16H98.6558V27H91.6758V13.1H93.9558V25.16ZM110.863 13.1L106.263 21.96V27H103.983V21.96L99.3625 13.1H101.903L105.123 19.92L108.343 13.1H110.863Z" fill="white"/>
</svg>
